<svg width="51" height="50" viewBox="0 0 51 50" fill="none" xmlns="http://www.w3.org/2000/svg">
<g clip-path="url(#clip0_1067_3545)">
<path fill-rule="evenodd" clip-rule="evenodd" d="M23.0367 11.7665C23.9777 13.1521 24.4512 14.8024 24.4512 16.7299C24.4512 18.7134 23.9777 20.3107 23.0248 21.5158C22.4863 22.1915 21.7021 22.8111 20.6634 23.3685C22.2406 23.9757 23.4273 24.9316 24.2352 26.2394C25.0371 27.5441 25.4366 29.1353 25.4366 31.0036C25.4366 32.9279 24.9809 34.6592 24.0606 36.185C23.4776 37.1969 22.7467 38.0532 21.8737 38.7445C20.8883 39.5385 19.7282 40.0803 18.3848 40.3761C17.0413 40.672 15.5883 40.8152 14.0169 40.8152H0.09375V8.30078H15.026C18.7961 8.36306 21.4624 9.51517 23.0367 11.7665ZM6.25487 13.9492V21.1235H13.7684C15.1059 21.1235 16.1979 20.8525 17.0383 20.3139C17.8699 19.7783 18.293 18.8255 18.293 17.4616C18.293 15.9452 17.7396 14.9457 16.6329 14.4568C15.6771 14.1205 14.4608 13.9492 12.9812 13.9492H6.25487ZM6.25487 26.501V35.1698H13.7565C15.0971 35.1698 16.1417 34.9799 16.8874 34.6C18.2427 33.8901 18.9174 32.5387 18.9174 30.5427C18.9174 28.8457 18.2664 27.6874 16.9525 27.0521C16.2156 26.7003 15.1858 26.5135 13.8631 26.501H6.25487ZM44.1182 17.2623C45.7162 18.0128 47.0301 19.1991 48.0629 20.8183C49.0069 22.2475 49.6135 23.9041 49.8887 25.7879C50.0485 26.8933 50.1166 28.4845 50.087 30.5614H33.4413C33.539 32.9746 34.3291 34.6654 35.8324 35.6338C36.7468 36.2379 37.8447 36.5368 39.129 36.5368C40.4843 36.5368 41.594 36.1725 42.4433 35.4376C42.9109 35.0391 43.3192 34.4879 43.6743 33.7811H49.7733C49.6135 35.2072 48.8737 36.6551 47.5598 38.1311C45.515 40.4664 42.6475 41.6341 38.9662 41.6341C35.9241 41.6341 33.2371 40.6502 30.9201 38.676C28.5882 36.705 27.4311 33.4946 27.4311 29.0543C27.4311 24.8849 28.4787 21.6933 30.5738 19.4669C32.6749 17.2499 35.3974 16.1351 38.7443 16.1351C40.7329 16.1351 42.5262 16.5088 44.1182 17.2623ZM35.1814 22.6928C34.338 23.6083 33.8053 24.8507 33.5893 26.4138H43.8845C43.7779 24.7448 43.2423 23.4806 42.2953 22.615C41.3366 21.7524 40.1558 21.3196 38.7472 21.3196C37.2173 21.3196 36.0247 21.7774 35.1814 22.6928ZM32.0446 13.8652H45.2842V9.82032H32.0446V13.8652Z" fill="#1769FF"/>
</g>
<defs>
<clipPath id="clip0_1067_3545">
<rect width="50" height="50" fill="white" transform="translate(0.09375)"/>
</clipPath>
</defs>
</svg>
