<svg width="51" height="51" viewBox="0 0 51 51" fill="none" xmlns="http://www.w3.org/2000/svg">
<g clip-path="url(#clip0_1067_3549)">
<ellipse cx="25.0937" cy="25.6586" rx="24" ry="24.2963" fill="#EA4C89"/>
<path fill-rule="evenodd" clip-rule="evenodd" d="M25.0938 0.349609C11.2922 0.349609 0.09375 11.6864 0.09375 25.6583C0.09375 39.6301 11.2922 50.9669 25.0938 50.9669C38.8681 50.9669 50.0938 39.6301 50.0938 25.6583C50.0938 11.6864 38.8681 0.349609 25.0938 0.349609ZM41.6067 12.0157C44.5894 15.694 46.379 20.3879 46.4332 25.4661C45.7282 25.3288 38.6783 23.874 31.5743 24.7798C31.4116 24.423 31.276 24.0387 31.1133 23.6544C30.6795 22.6113 30.1914 21.5408 29.7033 20.5252C37.5667 17.2861 41.1458 12.6196 41.6067 12.0157ZM25.0937 4.08277C30.5167 4.08277 35.4788 6.14149 39.2477 9.51781C38.8681 10.0668 35.6414 14.4313 28.0493 17.3135C24.5514 10.8079 20.674 5.48271 20.0775 4.65921C21.6772 4.27492 23.3584 4.08277 25.0937 4.08277ZM16.0103 6.11406C16.5797 6.88263 20.3758 12.2354 23.9278 18.6037C13.9495 21.2937 5.13715 21.2389 4.18811 21.2389C5.57095 14.5411 10.045 8.96882 16.0103 6.11406ZM3.72715 25.6857C3.72715 25.4661 3.72715 25.2465 3.72715 25.0269C4.64906 25.0543 15.007 25.1916 25.6631 21.9526C26.2868 23.1603 26.8562 24.3956 27.3985 25.6308C27.1273 25.7132 26.8291 25.7955 26.5579 25.8778C15.5493 29.4738 9.69245 39.3008 9.2044 40.1243C5.815 36.3087 3.72715 31.2306 3.72715 25.6857ZM25.0938 47.2886C20.1589 47.2886 15.6035 45.5867 11.9972 42.732C12.3769 41.936 16.7153 33.4814 28.7543 29.2267C28.8085 29.1993 28.8356 29.1993 28.8899 29.1718C31.8996 37.0499 33.1198 43.6653 33.4452 45.5593C30.8693 46.6847 28.0493 47.2886 25.0938 47.2886ZM36.9972 43.5829C36.7803 42.2653 35.6415 35.9519 32.8486 28.1836C39.546 27.1131 45.4028 28.8699 46.1349 29.1169C45.213 35.1284 41.7965 40.3164 36.9972 43.5829Z" fill="#C32361"/>
</g>
<defs>
<clipPath id="clip0_1067_3549">
<rect width="50" height="50.6173" fill="white" transform="translate(0.09375 0.349609)"/>
</clipPath>
</defs>
</svg>
