<svg width="51" height="51" viewBox="0 0 51 51" fill="none" xmlns="http://www.w3.org/2000/svg">
<g clip-path="url(#clip0_1067_3560)">
<path d="M50.0938 25.6303C50.0938 11.9373 38.9009 0.836914 25.0938 0.836914C11.2866 0.836914 0.09375 11.9373 0.09375 25.6303C0.09375 38.0054 9.23589 48.2625 21.1875 50.1225V32.7971H14.8398V25.6303H21.1875V20.168C21.1875 13.9542 24.9198 10.5218 30.6304 10.5218C33.3656 10.5218 36.2266 11.0061 36.2266 11.0061V17.1076H33.0741C29.9685 17.1076 29 19.0187 29 20.9795V25.6303H35.9336L34.8252 32.7971H29V50.1225C40.9516 48.2625 50.0938 38.0054 50.0938 25.6303Z" fill="#1877F2"/>
<path d="M34.8252 32.7968L35.9336 25.63H29V20.9791C29 19.0184 29.9685 17.1072 33.0741 17.1072H36.2266V11.0057C36.2266 11.0057 33.3656 10.5215 30.6304 10.5215C24.9198 10.5215 21.1875 13.9538 21.1875 20.1677V25.63H14.8398V32.7968H21.1875V50.1221C22.4603 50.3202 23.7648 50.4233 25.0937 50.4233C26.4227 50.4233 27.7272 50.3202 29 50.1221V32.7968H34.8252Z" fill="white"/>
</g>
<defs>
<clipPath id="clip0_1067_3560">
<rect width="50" height="49.5868" fill="white" transform="translate(0.09375 0.836914)"/>
</clipPath>
</defs>
</svg>
