<svg width="51" height="51" viewBox="0 0 51 51" fill="none" xmlns="http://www.w3.org/2000/svg">
<path fill-rule="evenodd" clip-rule="evenodd" d="M12.2559 25.9668C12.2559 18.8766 18.0036 13.129 25.0938 13.129C32.1839 13.129 37.9316 18.8766 37.9316 25.9668C37.9316 33.057 32.1839 38.8046 25.0938 38.8046C18.0036 38.8046 12.2559 33.057 12.2559 25.9668ZM25.0938 34.3001C20.4914 34.3001 16.7604 30.5692 16.7604 25.9668C16.7604 21.3644 20.4914 17.6335 25.0938 17.6335C29.6961 17.6335 33.4271 21.3644 33.4271 25.9668C33.4271 30.5692 29.6961 34.3001 25.0938 34.3001Z" fill="url(#paint0_linear_1067_3547)"/>
<path fill-rule="evenodd" clip-rule="evenodd" d="M12.2559 25.9668C12.2559 18.8766 18.0036 13.129 25.0938 13.129C32.1839 13.129 37.9316 18.8766 37.9316 25.9668C37.9316 33.057 32.1839 38.8046 25.0938 38.8046C18.0036 38.8046 12.2559 33.057 12.2559 25.9668ZM25.0938 34.3001C20.4914 34.3001 16.7604 30.5692 16.7604 25.9668C16.7604 21.3644 20.4914 17.6335 25.0938 17.6335C29.6961 17.6335 33.4271 21.3644 33.4271 25.9668C33.4271 30.5692 29.6961 34.3001 25.0938 34.3001Z" fill="url(#paint1_radial_1067_3547)"/>
<path d="M38.4388 15.6217C40.0957 15.6217 41.4388 14.2786 41.4388 12.6218C41.4388 10.9649 40.0957 9.62171 38.4388 9.62171C36.782 9.62171 35.4388 10.9649 35.4388 12.6218C35.4388 14.2786 36.782 15.6217 38.4388 15.6217Z" fill="url(#paint2_linear_1067_3547)"/>
<path d="M38.4388 15.6217C40.0957 15.6217 41.4388 14.2786 41.4388 12.6218C41.4388 10.9649 40.0957 9.62171 38.4388 9.62171C36.782 9.62171 35.4388 10.9649 35.4388 12.6218C35.4388 14.2786 36.782 15.6217 38.4388 15.6217Z" fill="url(#paint3_radial_1067_3547)"/>
<path fill-rule="evenodd" clip-rule="evenodd" d="M25.0938 0.966797C18.3042 0.966797 17.4528 0.995576 14.7863 1.11724C12.1253 1.23861 10.308 1.66126 8.7178 2.27931C7.07383 2.91811 5.67964 3.77294 4.28972 5.16276C2.89989 6.55269 2.04506 7.94688 1.40627 9.59085C0.788215 11.181 0.365562 12.9984 0.244194 15.6593C0.122529 18.3258 0.09375 19.1772 0.09375 25.9668C0.09375 32.7564 0.122529 33.6077 0.244194 36.2743C0.365562 38.9352 0.788215 40.7526 1.40627 42.3427C2.04506 43.9867 2.89989 45.3809 4.28972 46.7708C5.67964 48.1607 7.07383 49.0155 8.7178 49.6544C10.308 50.2723 12.1253 50.695 14.7863 50.8163C17.4528 50.938 18.3042 50.9668 25.0938 50.9668C31.8833 50.9668 32.7347 50.938 35.4012 50.8163C38.0622 50.695 39.8795 50.2723 41.4697 49.6544C43.1137 49.0155 44.5079 48.1607 45.8978 46.7708C47.2876 45.3809 48.1424 43.9867 48.7813 42.3427C49.3993 40.7526 49.8219 38.9352 49.9433 36.2743C50.065 33.6077 50.0937 32.7564 50.0937 25.9668C50.0937 19.1772 50.065 18.3258 49.9433 15.6593C49.8219 12.9984 49.3993 11.181 48.7813 9.59085C48.1424 7.94688 47.2876 6.55269 45.8978 5.16276C44.5079 3.77294 43.1137 2.91811 41.4697 2.27931C39.8795 1.66126 38.0622 1.23861 35.4012 1.11724C32.7347 0.995576 31.8833 0.966797 25.0938 0.966797ZM25.0938 5.47129C31.769 5.47129 32.5597 5.4968 35.1959 5.61707C37.6334 5.72822 38.9571 6.13549 39.838 6.47786C41.005 6.93138 41.8378 7.47312 42.7126 8.34799C43.5874 9.22277 44.1292 10.0556 44.5827 11.2225C44.9251 12.1034 45.3323 13.4272 45.4435 15.8647C45.5638 18.5008 45.5893 19.2915 45.5893 25.9668C45.5893 32.6421 45.5638 33.4328 45.4435 36.0689C45.3323 38.5064 44.9251 39.8301 44.5827 40.7111C44.1292 41.878 43.5874 42.7108 42.7126 43.5856C41.8378 44.4605 41.005 45.0022 39.838 45.4557C38.9571 45.7981 37.6334 46.2054 35.1959 46.3165C32.5601 46.4368 31.7695 46.4623 25.0938 46.4623C18.418 46.4623 17.6275 46.4368 14.9916 46.3165C12.5541 46.2054 11.2304 45.7981 10.3495 45.4557C9.18253 45.0022 8.34973 44.4605 7.47495 43.5856C6.60017 42.7108 6.05834 41.878 5.60482 40.7111C5.26245 39.8301 4.85518 38.5064 4.74403 36.0689C4.62376 33.4328 4.59825 32.6421 4.59825 25.9668C4.59825 19.2915 4.62376 18.5008 4.74403 15.8647C4.85518 13.4272 5.26245 12.1034 5.60482 11.2225C6.05834 10.0556 6.60007 9.22277 7.47495 8.34799C8.34973 7.47312 9.18253 6.93138 10.3495 6.47786C11.2304 6.13549 12.5541 5.72822 14.9916 5.61707C17.6278 5.4968 18.4185 5.47129 25.0938 5.47129Z" fill="url(#paint4_linear_1067_3547)"/>
<path fill-rule="evenodd" clip-rule="evenodd" d="M25.0938 0.966797C18.3042 0.966797 17.4528 0.995576 14.7863 1.11724C12.1253 1.23861 10.308 1.66126 8.7178 2.27931C7.07383 2.91811 5.67964 3.77294 4.28972 5.16276C2.89989 6.55269 2.04506 7.94688 1.40627 9.59085C0.788215 11.181 0.365562 12.9984 0.244194 15.6593C0.122529 18.3258 0.09375 19.1772 0.09375 25.9668C0.09375 32.7564 0.122529 33.6077 0.244194 36.2743C0.365562 38.9352 0.788215 40.7526 1.40627 42.3427C2.04506 43.9867 2.89989 45.3809 4.28972 46.7708C5.67964 48.1607 7.07383 49.0155 8.7178 49.6544C10.308 50.2723 12.1253 50.695 14.7863 50.8163C17.4528 50.938 18.3042 50.9668 25.0938 50.9668C31.8833 50.9668 32.7347 50.938 35.4012 50.8163C38.0622 50.695 39.8795 50.2723 41.4697 49.6544C43.1137 49.0155 44.5079 48.1607 45.8978 46.7708C47.2876 45.3809 48.1424 43.9867 48.7813 42.3427C49.3993 40.7526 49.8219 38.9352 49.9433 36.2743C50.065 33.6077 50.0937 32.7564 50.0937 25.9668C50.0937 19.1772 50.065 18.3258 49.9433 15.6593C49.8219 12.9984 49.3993 11.181 48.7813 9.59085C48.1424 7.94688 47.2876 6.55269 45.8978 5.16276C44.5079 3.77294 43.1137 2.91811 41.4697 2.27931C39.8795 1.66126 38.0622 1.23861 35.4012 1.11724C32.7347 0.995576 31.8833 0.966797 25.0938 0.966797ZM25.0938 5.47129C31.769 5.47129 32.5597 5.4968 35.1959 5.61707C37.6334 5.72822 38.9571 6.13549 39.838 6.47786C41.005 6.93138 41.8378 7.47312 42.7126 8.34799C43.5874 9.22277 44.1292 10.0556 44.5827 11.2225C44.9251 12.1034 45.3323 13.4272 45.4435 15.8647C45.5638 18.5008 45.5893 19.2915 45.5893 25.9668C45.5893 32.6421 45.5638 33.4328 45.4435 36.0689C45.3323 38.5064 44.9251 39.8301 44.5827 40.7111C44.1292 41.878 43.5874 42.7108 42.7126 43.5856C41.8378 44.4605 41.005 45.0022 39.838 45.4557C38.9571 45.7981 37.6334 46.2054 35.1959 46.3165C32.5601 46.4368 31.7695 46.4623 25.0938 46.4623C18.418 46.4623 17.6275 46.4368 14.9916 46.3165C12.5541 46.2054 11.2304 45.7981 10.3495 45.4557C9.18253 45.0022 8.34973 44.4605 7.47495 43.5856C6.60017 42.7108 6.05834 41.878 5.60482 40.7111C5.26245 39.8301 4.85518 38.5064 4.74403 36.0689C4.62376 33.4328 4.59825 32.6421 4.59825 25.9668C4.59825 19.2915 4.62376 18.5008 4.74403 15.8647C4.85518 13.4272 5.26245 12.1034 5.60482 11.2225C6.05834 10.0556 6.60007 9.22277 7.47495 8.34799C8.34973 7.47312 9.18253 6.93138 10.3495 6.47786C11.2304 6.13549 12.5541 5.72822 14.9916 5.61707C17.6278 5.4968 18.4185 5.47129 25.0938 5.47129Z" fill="url(#paint5_radial_1067_3547)"/>
<defs>
<linearGradient id="paint0_linear_1067_3547" x1="3.01109" y1="3.59544" x2="18.7757" y2="64.5747" gradientUnits="userSpaceOnUse">
<stop stop-color="#4E60D3"/>
<stop offset="0.142763" stop-color="#913BAF"/>
<stop offset="0.761458" stop-color="#D52D88"/>
<stop offset="1" stop-color="#F26D4F"/>
</linearGradient>
<radialGradient id="paint1_radial_1067_3547" cx="0" cy="0" r="1" gradientUnits="userSpaceOnUse" gradientTransform="translate(15.2309 50.9668) rotate(32.1601) scale(46.6973 33.6066)">
<stop stop-color="#FED276"/>
<stop offset="0.17024" stop-color="#FDBD61" stop-opacity="0.975006"/>
<stop offset="0.454081" stop-color="#F6804D"/>
<stop offset="1" stop-color="#E83D5C" stop-opacity="0.01"/>
</radialGradient>
<linearGradient id="paint2_linear_1067_3547" x1="3.01109" y1="3.59544" x2="18.7757" y2="64.5747" gradientUnits="userSpaceOnUse">
<stop stop-color="#4E60D3"/>
<stop offset="0.142763" stop-color="#913BAF"/>
<stop offset="0.761458" stop-color="#D52D88"/>
<stop offset="1" stop-color="#F26D4F"/>
</linearGradient>
<radialGradient id="paint3_radial_1067_3547" cx="0" cy="0" r="1" gradientUnits="userSpaceOnUse" gradientTransform="translate(15.2309 50.9668) rotate(32.1601) scale(46.6973 33.6066)">
<stop stop-color="#FED276"/>
<stop offset="0.17024" stop-color="#FDBD61" stop-opacity="0.975006"/>
<stop offset="0.454081" stop-color="#F6804D"/>
<stop offset="1" stop-color="#E83D5C" stop-opacity="0.01"/>
</radialGradient>
<linearGradient id="paint4_linear_1067_3547" x1="3.01109" y1="3.59544" x2="18.7757" y2="64.5747" gradientUnits="userSpaceOnUse">
<stop stop-color="#4E60D3"/>
<stop offset="0.142763" stop-color="#913BAF"/>
<stop offset="0.761458" stop-color="#D52D88"/>
<stop offset="1" stop-color="#F26D4F"/>
</linearGradient>
<radialGradient id="paint5_radial_1067_3547" cx="0" cy="0" r="1" gradientUnits="userSpaceOnUse" gradientTransform="translate(15.2309 50.9668) rotate(32.1601) scale(46.6973 33.6066)">
<stop stop-color="#FED276"/>
<stop offset="0.17024" stop-color="#FDBD61" stop-opacity="0.975006"/>
<stop offset="0.454081" stop-color="#F6804D"/>
<stop offset="1" stop-color="#E83D5C" stop-opacity="0.01"/>
</radialGradient>
</defs>
</svg>
