<svg width="51" height="51" viewBox="0 0 51 51" fill="none" xmlns="http://www.w3.org/2000/svg">
<path d="M46.3895 0.538854H3.78331C1.76965 0.516317 0.118326 2.116 0.09375 4.11304V46.5433C0.117484 48.5413 1.76867 50.1426 3.78331 50.1216H46.3895C48.4082 50.1465 50.0658 48.5453 50.0938 46.5433V4.10998C50.065 2.109 48.4072 0.509402 46.3895 0.53547" fill="#0A66C2"/>
<path d="M35.2877 42.7866H42.6961L42.6992 29.8062C42.6992 23.4339 41.3147 18.5357 33.806 18.5357C30.9354 18.43 28.239 19.8987 26.7888 22.3578H26.6892V19.1242H19.5771V42.7858H26.9856V31.0805C26.9856 27.9939 27.5759 25.0044 31.4345 25.0044C35.2383 25.0044 35.2877 28.5365 35.2877 31.2803V42.7866Z" fill="white"/>
<path d="M6.91797 11.6268C6.9184 13.9817 8.84356 15.8903 11.2179 15.8898C12.3582 15.8896 13.4516 15.4402 14.2577 14.6405C15.0638 13.8407 15.5166 12.7561 15.5164 11.6253C15.516 9.27049 13.5908 7.36188 11.2164 7.3623C8.84202 7.36273 6.91754 9.27203 6.91797 11.6268Z" fill="white"/>
<path d="M7.50601 42.7866H14.9222V19.1242H7.50601V42.7866Z" fill="white"/>
</svg>
