<svg width="51" height="51" viewBox="0 0 51 51" fill="none" xmlns="http://www.w3.org/2000/svg">
<path d="M44.9749 15.4088C45.0054 15.8609 45.0054 16.3129 45.0054 16.7691C45.0054 30.6702 34.6865 46.7023 15.8179 46.7023V46.694C10.2441 46.7023 4.78601 45.0649 0.09375 41.9776C0.904231 42.0776 1.71878 42.1276 2.53535 42.1297C7.15449 42.1339 11.6416 40.5444 15.2755 37.6176C10.8859 37.5321 7.03667 34.597 5.69196 30.3119C7.22964 30.616 8.81404 30.5535 10.3233 30.1306C5.53759 29.139 2.09456 24.8269 2.09456 19.8189C2.09456 19.7731 2.09456 19.7293 2.09456 19.6856C3.52052 20.5001 5.11711 20.9521 6.75026 21.0021C2.24285 17.9128 0.853449 11.7633 3.57537 6.95528C8.78357 13.5277 16.4679 17.5232 24.7169 17.9461C23.8902 14.2922 25.0196 10.4634 27.6847 7.8948C31.8163 3.91176 38.3143 4.11592 42.1982 8.35101C44.4955 7.88646 46.6974 7.02195 48.7125 5.79704C47.9467 8.23227 46.344 10.3009 44.203 11.6154C46.2363 11.3695 48.2229 10.8112 50.0937 9.95923C48.7165 12.0757 46.9818 13.9193 44.9749 15.4088Z" fill="#1D9BF0"/>
</svg>
